<svg xmlns="http://www.w3.org/2000/svg" viewBox="0 0 243.93 115.81"><defs><style>.cls-1{font-size:18.17px;font-family:Gilroy-ExtraBold, Gilroy;font-weight:800;}.cls-1,.cls-2{fill:#FF0000;}</style></defs><g id="Layer_2" data-name="Layer 2"><g id="Layer_4" data-name="Layer 4"><text class="cls-1" transform="translate(18.95 26.86) rotate(-30.12) scale(1.12 1)">A</text><text class="cls-1" transform="translate(30.13 20.06) rotate(-14.08) scale(1.12 1)">M</text><text class="cls-1" transform="translate(45.66 16.5) rotate(-0.83) scale(1.12 1)">Ž</text><text class="cls-1" transform="translate(56.2 16.57) rotate(8.08) scale(1.12 1)">I</text><text class="cls-1" transform="translate(61.4 16.91) rotate(17.92) scale(1.12 1)">N</text><text class="cls-1" transform="matrix(0.94, 0.6, -0.54, 0.84, 73.73, 20.78)">A</text><text class="cls-1" transform="translate(84.69 28.16) rotate(43.52) scale(1.12 1)">I</text><text class="cls-1" transform="matrix(0.61, 0.94, -0.84, 0.54, 143.65, 83.33)">A</text><text class="cls-1" transform="matrix(0.87, 0.7, -0.63, 0.78, 153.08, 96.55)">L</text><text class="cls-1" transform="translate(162.37 103.96) rotate(23.66) scale(1.12 1)">K</text><text class="cls-1" transform="translate(176.71 109.84) rotate(6.28) scale(1.12 1)">A</text><text class="cls-1" transform="translate(192.74 111.26) rotate(-10.48) scale(1.12 1)">N</text><text class="cls-1" transform="translate(208.48 108) rotate(-28.26) scale(1.12 1)">A</text><text class="cls-1" transform="translate(222.29 100.07) rotate(-46.05) scale(1.12 1)">S</text><path class="cls-2" d="M144,54.24c11.94-17,32-26.3,52.63-26.13,10.41.08,21.25,2.4,30.3,7.68,3.57,2.09,9.31,5.91,11.11,9.86,1.16,2.56.59,7.24.35,10a46.06,46.06,0,0,1-2.19,10.5c-.67,2.06,1.28,5.86,2,7.79a46.76,46.76,0,0,0,2.16,5.23,17.48,17.48,0,0,0,1.33,2c4.6-14.21,1.81-27.89-3.94-41.32-5.13-12-14.06-19.58-26.42-23.59-26.18-8.52-56.75.13-72.78,22.91-1,1.37,1.48,6.41,2,7.79.24.66,3.5,7.23,3.49,7.24Z"/><path class="cls-2" d="M106.07,48.56C99.79,58.19,93.26,68,84.19,75.2A53.86,53.86,0,0,1,49.63,86.74C37.46,86.52,25,82.12,16,73.8,12,70.09,6.65,64.46,5.66,59c-1.14-6.26,1.75-12.78,6-17.22,1-1.06-1.56-6.63-2-7.79-.21-.57-3.31-7.43-3.49-7.24C-5,38.42,1.28,55.28,7.06,68.07c6.08,13.45,15.47,24.54,29.45,30a54.68,54.68,0,0,0,45-2.48c13.32-7.09,22-19.69,30-32,.94-1.45-1.47-6.35-2-7.79-.25-.69-3.53-7.18-3.49-7.25Z"/><path class="cls-2" d="M105.58,57.17l-.51.6,4.32,3.46.58-.76a9.17,9.17,0,0,0,1.41.37,8.49,8.49,0,0,0,1.74.12,11,11,0,0,0,8-4.46c7.53-9.38,8.85-11.39,5.9-14.37L118,53a1.21,1.21,0,0,1-1.65.31l-.3-.23a1.29,1.29,0,0,1,0-1.75l8-11.76-.7-.57-1.2-1-9.88,10.49a1.13,1.13,0,0,1-1.58.24l-.29-.24a1.28,1.28,0,0,1,0-1.75l8.54-11.1c-3.32-1.9-5,.16-12.23,9.21-2.45,3.05-3.37,6.68-2.35,9.84a8.26,8.26,0,0,0,.52,1.27A8.86,8.86,0,0,0,105.58,57.17Z"/><path class="cls-2" d="M142.2,52.6,147,47.14a4.06,4.06,0,0,0,.93-2,2.77,2.77,0,0,1-1.81-.83c-.23-.2-.48-.44-.74-.69s-.56-.55-.87-.82l-.31-.27c-.31-.27-.63-.52-.93-.75s-.55-.43-.78-.64a2.74,2.74,0,0,1-1.07-1.68,4,4,0,0,0-1.81,1.19L114.73,69.2C121,74.77,140.75,54.26,142.2,52.6Z"/></g></g></svg>