<svg xmlns="http://www.w3.org/2000/svg" width="52" height="47" viewBox="0 0 52 47">
  <path d="M37.153,14.406c-.381-.118-4.592-6.652-7.842-11.739a2.244,2.244,0,0,0-3.705-.08l-7.85,11.155a2.216,2.216,0,0,1-1.263.867L3.2,18.017A2.148,2.148,0,0,0,2.061,21.5L10.73,31.67a2.134,2.134,0,0,1,.511,1.458L10.78,46.41a2.207,2.207,0,0,0,2.989,2.1L26.76,43.768a2.264,2.264,0,0,1,1.527-.008l13.5,4.758a2.2,2.2,0,0,0,2.962-2.182l-.914-13.166a2.132,2.132,0,0,1,.508-1.531l8.693-10.2a2.106,2.106,0,0,0-1.105-3.424C46.031,16.508,38.659,14.873,37.153,14.406Z" transform="translate(-1.547 -1.649)"/>
</svg>
